<svg width="142" height="138" viewBox="0 0 142 138" fill="none" xmlns="http://www.w3.org/2000/svg">
<path fill-rule="evenodd" clip-rule="evenodd" d="M86.3514 9.2V0H55.6487V9.2H66.2667V17.7714C66.0757 17.7883 65.8851 17.8061 65.6947 17.825C55.2758 18.8574 45.7721 22.8975 38.0941 29.0412C37.817 29.263 37.5422 29.4875 37.2699 29.7147L31.06 23.6797L38.6857 16.2687L31.9917 9.76336L10.0463 31.0906L16.7403 37.596L24.366 30.1851L30.576 36.2201C30.3422 36.4847 30.1112 36.7517 29.883 37.0211C23.5612 44.4828 19.404 53.7187 18.3417 63.8442C18.3223 64.0292 18.3039 64.2144 18.2865 64.4H9.46667L9.46667 54.0811H0V83.9189H9.46667L9.46667 73.6H18.2865C18.3039 73.7856 18.3223 73.9708 18.3417 74.1558C19.404 84.2816 23.5615 93.5178 29.8836 100.98C30.1116 101.249 30.3424 101.515 30.5759 101.78L24.3659 107.815L16.7402 100.404L10.0462 106.909L31.9916 128.237L38.6856 121.731L31.0598 114.32L37.2698 108.285C37.5419 108.512 37.8165 108.737 38.0933 108.958C45.7715 115.102 55.2754 119.143 65.6946 120.175C65.885 120.194 66.0757 120.212 66.2667 120.229V128.8H55.6486V138H86.3514V128.8H75.7333V120.229C75.9243 120.212 76.1149 120.194 76.3053 120.175C86.7242 119.143 96.2279 115.102 103.906 108.959C104.183 108.737 104.458 108.513 104.73 108.285L110.94 114.32L103.314 121.731L110.008 128.237L131.954 106.909L125.26 100.404L117.634 107.815L111.424 101.78C111.658 101.515 111.889 101.248 112.117 100.979C118.439 93.5172 122.596 84.2812 123.658 74.1558C123.678 73.9708 123.696 73.7856 123.713 73.6H132.533V83.9189H142V54.0811L132.533 54.0811V64.4H123.713C123.696 64.2144 123.678 64.0292 123.658 63.8442C122.596 53.7184 118.438 44.4821 112.116 37.0202C111.888 36.7512 111.658 36.4845 111.424 36.2201L117.634 30.185L125.26 37.5959L131.954 31.0906L110.008 9.76333L103.314 16.2687L110.94 23.6796L104.73 29.7147C104.458 29.4877 104.184 29.2634 103.907 29.0419C96.2285 22.8978 86.7246 18.8574 76.3053 17.825C76.1149 17.8061 75.9243 17.7883 75.7333 17.7714V9.2H86.3514ZM69.5878 27.6372C58.3958 28.0903 48.3233 32.6519 40.9407 39.7862C37.7149 42.9386 35.0001 46.5958 32.9306 50.6283C30.0927 56.1578 28.468 62.3929 28.4021 68.9998C28.4087 69.6596 28.4308 70.3156 28.4681 70.9676C28.616 73.5527 29.003 76.0743 29.6073 78.5117C31.4904 86.1055 35.4845 92.8818 40.9409 98.214C42.5591 99.7777 44.3066 101.218 46.1667 102.518C53.1482 107.399 61.7173 110.311 70.9995 110.398C71.5383 110.393 72.0747 110.378 72.6085 110.354C75.8244 110.21 78.9468 109.727 81.9384 108.941C89.2858 107.01 95.8442 103.254 101.06 98.2132C108.709 90.7378 113.484 80.4246 113.598 68.9996C113.523 61.443 111.408 54.3729 107.771 48.2885C107.362 47.6038 106.934 46.9315 106.487 46.2725C104.9 43.9338 103.08 41.7613 101.06 39.7867C93.7917 32.7628 83.9162 28.2324 72.932 27.6613C72.2917 27.628 71.6476 27.6081 71 27.602C70.5274 27.6065 70.0566 27.6182 69.5878 27.6372ZM40.0276 56.2535C35.721 58.864 33.4244 63.9252 34.6207 68.9413C34.63 68.9804 34.6395 69.0196 34.6493 69.0587C34.6726 69.1521 34.6971 69.2455 34.7228 69.3389C35.2905 71.3978 36.384 73.1833 37.8253 74.5956C39.956 76.6833 42.8468 77.9552 45.9224 78.0886C47.1362 78.1413 48.3789 78.0166 49.615 77.6947C53.5928 76.6589 56.5789 73.8216 57.8929 70.3281C58.1969 69.5199 58.4114 68.6767 58.528 67.8125C58.7293 66.3204 58.6388 64.7659 58.2131 63.222C57.8161 61.7823 57.1621 60.4763 56.3118 59.3381C55.1373 57.7659 53.5884 56.5139 51.8255 55.6722C49.2763 54.4551 46.2798 54.0957 43.3209 54.8662C42.1278 55.1769 41.0239 55.6496 40.0276 56.2535ZM60.6887 51.2145C60.4476 53.4455 60.6155 55.7564 61.2486 58.0526C61.6359 59.4573 62.1768 60.7822 62.849 62.0148C63.7274 63.6252 64.8299 65.078 66.1069 66.3453C66.5405 66.7756 66.9942 67.1845 67.4662 67.5709C71.5807 70.9402 77.077 72.6007 82.6669 71.8297C83.4383 71.7233 84.2115 71.5706 84.9831 71.3697C94.3013 68.9432 100.205 60.3138 99.2505 51.2776C99.146 50.2887 98.9594 49.2949 98.6862 48.3038C98.2531 46.7331 97.628 45.2623 96.8421 43.9087C96.8364 43.8989 96.8307 43.8891 96.825 43.8793C92.5767 36.5938 83.6619 32.7185 74.9517 34.9867C73.7388 35.3025 72.5838 35.7235 71.4942 36.2367C65.4192 39.0983 61.3787 44.8293 60.6887 51.2145ZM79.1877 80.6331C75.9434 76.7 70.7974 74.5095 65.4781 75.0312C64.7702 75.1006 64.0593 75.2181 63.3493 75.3859C63.2301 75.4141 63.1108 75.4437 62.9917 75.4747C57.4899 76.9074 53.4688 81.0298 52.0251 85.996C51.2879 88.5319 51.2227 91.2877 51.9754 94.0178C52.2204 94.9062 52.5417 95.7548 52.9307 96.5587C56.0627 103.032 63.5822 106.613 70.9433 104.753C70.9809 104.743 71.0185 104.734 71.0561 104.724C73.6781 104.041 75.9638 102.747 77.7945 101.042C81.7666 97.3436 83.5967 91.7093 82.0723 86.1806C81.496 84.0903 80.4966 82.2199 79.1877 80.6331ZM82.686 63.0385C88.2896 61.5794 91.6151 55.9818 90.1136 50.5361C88.6121 45.0904 82.8523 41.8586 77.2487 43.3178C71.6451 44.777 68.3197 50.3745 69.8212 55.8202C71.3227 61.266 77.0825 64.4977 82.686 63.0385ZM68.7591 96.3926C72.3356 95.4613 74.458 91.8887 73.4997 88.4129C72.5414 84.9372 68.8652 82.8745 65.2887 83.8058C61.7122 84.7371 59.5897 88.3098 60.548 91.7855C61.5064 95.2613 65.1826 97.324 68.7591 96.3926ZM43.2954 67.1066C43.7649 68.8093 45.5659 69.8198 47.318 69.3636C49.0702 68.9073 50.11 67.1571 49.6405 65.4543C49.171 63.7515 47.37 62.741 45.6179 63.1973C43.8657 63.6535 42.8259 65.4038 43.2954 67.1066Z" fill="#D9D2D2" fill-opacity="0.38"/>
</svg>
